<svg width="59" height="60" viewBox="0 0 59 60" fill="none" xmlns="http://www.w3.org/2000/svg">
<circle cx="29.5" cy="30" r="29.5" fill="#DF322B"/>
<path d="M31.5462 36.9249L32.5154 12.5H26.4308L27.4538 36.9249H31.5462ZM29.4462 48.5C30.4513 48.5 31.2949 48.1771 31.9769 47.5312C32.659 46.8853 33 46.1204 33 45.2365C33 44.2847 32.659 43.5028 31.9769 42.8909C31.2949 42.279 30.4513 41.9731 29.4462 41.9731C28.441 41.9731 27.6154 42.279 26.9692 42.8909C26.3231 43.5028 26 44.2847 26 45.2365C26 46.1204 26.3231 46.8853 26.9692 47.5312C27.6154 48.1771 28.441 48.5 29.4462 48.5Z" fill="white"/>
</svg>
